#!OML:ASF F:\VICON\USERDATA\INSTALL\rory3\rory3.ASF
:FULLY-SPECIFIED
:DEGREES
86
root -6.1533365164097065 17.856978791048803 -2.7936515719178128 -177.138745573869 -15.827070212729268 -185.3729914204258
lfemur -31.26118803794185 -24.525041656975453 -14.43919978819787
ltibia 33.392408975690664
lfoot 51.221329809490456 -46.932445125270014
ltoes 69.90474713841401
rfemur 24.36488289712298 -11.012817640331335 22.810133236294252
rtibia 9.078866190962191
rfoot 42.695712090014226 -31.264741933271843
rtoes 26.390696781998415
lowerback -11.485353893943127 18.169041690965514 15.725488837725768
upperback -17.03468551755563 21.803665435505085 -0.4651944037223239
thorax -8.117043700244636 8.671234589317166 -6.329083248143421
lowerneck -7.478516383745598 -24.210269102217694 -5.637674539467204
upperneck 5.923643240307447 -33.23910405896916 7.423357842918231
head 4.313748839306452 -16.237176021637794 -0.0017158124804816932
lclavicle -6.206498519141461e-15 -4.58588943014591e-15
lhumerus 71.18965717183033 36.76438773136015 64.31029003505911
lradius 75.63203167467162
lwrist 15.453622817729766
lhand -29.86554630111339 13.900382310242682
lfingers 7.125020000000003
lthumb -183.16699861463135 407.1992253340429
rclavicle -6.206498519141463e-15 -4.58588943014591e-15
rhumerus 126.25147114529004 31.01130956528452 -47.48119932109144
rradius 70.6030433852986
rwrist 9.956178251838345
rhand -50.537103106346976 32.09777712174534
rfingers 7.125020000000003
rthumb -23.10449562789845 3.2550468030062074
87
root -6.160113288871686 17.855169595821042 -2.7950001807523037 -176.4586193464168 -15.386848154345067 -184.99649406973884
lfemur -31.224496259249946 -24.37858852853993 -14.608226754702601
ltibia 33.30157074844783
lfoot 51.34580375596478 -46.49353034098368
ltoes 69.53589837196671
rfemur 24.11922402729761 -10.931560974671836 22.649782439202976
rtibia 9.090914235736133
rfoot 42.08190987272876 -31.877090277980976
rtoes 27.268905846840035
lowerback -11.433689341032842 18.119435222639453 15.692707761174619
upperback -17.004382810071657 21.75872184482068 -0.5426039401177329
thorax -8.060345929813298 8.653741959836578 -6.413266483112126
lowerneck -7.78874344469503 -23.941821021317498 -5.62496001916931
upperneck 6.0216030782699335 -32.79123102117898 7.244188635263279
head 4.357451382477416 -16.013516066896187 -0.024941611966500354
lclavicle -6.182452836303539e-15 -4.568299820280153e-15
lhumerus 70.73118898616636 36.67269927659498 62.952458395791616
lradius 74.58178775467604
lwrist 14.733036843784573
lhand -29.70131912741016 13.71533665123447
lfingers 7.125020000000003
lthumb -183.0086463716255 404.1297293195726
rclavicle -6.18245283630354e-15 -4.568299820280153e-15
rhumerus 125.08670189582438 31.044894993287052 -48.18654048379203
rradius 70.52740150884296
rwrist 9.354039121230866
rhand -51.012554160332996 32.73601540532643
rfingers 7.125020000000003
rthumb -23.561036199364956 3.911718925219832
88
root -6.155315230513575 17.85754141204611 -2.795203614077841 -176.28519094208306 -14.972640862802159 -185.14979782368826
lfemur -31.248579174928587 -24.17139301284297 -14.67471441558215
ltibia 33.144225387948254
lfoot 51.15278061138902 -46.179349671701615
ltoes 69.23341365944157
rfemur 23.99001888401322 -10.805171635910439 22.567028185356666
rtibia 9.1732855459544
rfoot 41.55981128346589 -32.551764114835215
rtoes 28.08797537702302
lowerback -11.347083294406186 18.10342262064285 15.733250056590942
upperback -16.909123091914665 21.735426839178455 -0.5452363453750639
thorax -7.999904715167248 8.637505812230554 -6.42136745254337
lowerneck -8.200383280699441 -23.58022089326189 -5.523265653675229
upperneck 6.100998373790365 -32.22387615391966 7.087206186259551
head 4.3967782345323165 -15.726761373816547 -0.04948834335947838
lclavicle -5.949425028749317e-15 -4.397288455087611e-15
lhumerus 70.55625414039338 36.29763191563199 61.32332907117433
lradius 73.26214051415252
lwrist 14.711824816712914
lhand -29.144478035596954 13.52548408554202
lfingers 7.125020000000003
lthumb -182.47135359374204 403.1488858663551
rclavicle -5.949425028749317e-15 -4.397288455087611e-15
rhumerus 123.89326383989881 31.140777924790683 -48.94391872635878
rradius 70.32819685174302
rwrist 8.586340285643256
rhand -51.077893844820544 32.938427002459456
rfingers 7.125020000000003
rthumb -23.623058707469525 4.112082028698488
89
root -6.148677146085817 17.863846088713757 -2.7987383623296505 -176.37253582108724 -14.738418763340647 -185.4064953117839
lfemur -31.245030097779868 -24.136814369247396 -14.796942299299
ltibia 32.81373485341397
lfoot 50.91111938113744 -46.04910240231537
ltoes 68.79314000584932
rfemur 23.697219954259907 -10.627873544737788 22.51633881148388
rtibia 9.271816028000558
rfoot 40.71577332662458 -33.61493548672815
rtoes 28.581970870859568
lowerback -11.257603907362885 17.983384989176194 15.705694556611624
upperback -16.821883033897507 21.584768318945944 -0.5177058474123954
thorax -7.945726821252401 8.564392953178805 -6.454492001502363
lowerneck -8.642821866908031 -23.430827578118283 -5.432774400190357
upperneck 5.975647045522326 -31.97134782817685 6.960464689248137
head 4.38367289349634 -15.583401563919866 -0.07004014767540279
lclavicle -6.315314974373766e-15 -4.652278757658135e-15
lhumerus 69.9913817987058 35.70170986767932 59.24374094644352
lradius 71.58011662253014
lwrist 14.854927290268968
lhand -28.460735463570764 13.293470600612771
lfingers 7.125020000000003
lthumb -181.81222076957408 398.9789087969932
rclavicle -6.3153149743737655e-15 -4.652278757658135e-15
rhumerus 122.43657330949743 30.88565467609194 -49.92843462949791
rradius 69.43807896096189
rwrist 7.267728766322243
rhand -50.953600859515596 32.72773242325454
rfingers 7.125020000000003
rthumb -23.504125437468375 3.8807444144945737
